<svg id="_519645599__Layer_1" data-name="Layer 1" xmlns="http://www.w3.org/2000/svg" viewBox="0 0 311 175"><defs><style>._519645599__cls-1{fill:#545454}._519645599__cls-2{fill:#737373}</style></defs><path class="_519645599__cls-1" d="M286.085 174.718c-2.793 0-5.599-.173-8.376.036-5.99.45-11.978.132-17.965.204-2.827.034-5.657-.141-8.484-.264a4.072 4.072 0 0 1-3.492-3.646c-.481-3.719-.434-7.459-.592-11.194-.433-10.292.754-85.014.875-88.161.075-1.959.22-3.915.261-5.874.032-1.482 1.173-1.999 2.192-2.457 1.168-.525 55.606-2.668 57.268-1.791a3.782 3.782 0 0 1 2.071 3.25c.17 2.363.232 4.736.289 7.107.112 4.75.01 9.514.339 14.248.271 3.89.101 7.766.213 11.647.588 20.316.155 40.636.255 60.955.015 3.147-.124 6.299-.288 9.443a16.021 16.021 0 0 1-.633 3.342 4.303 4.303 0 0 1-3.532 2.6c-3.331.088-6.663.17-9.993.281-3.469.116-6.936.26-10.404.393ZM223.973 174.983c-.198 0-.396.002-.594 0-8.997-.098-18.002-.01-26.989-.367-5.34-.212-10.683.084-16.001-.283-3.857-.265-7.703-.122-11.551-.243q-4.364-.137-8.727-.297-3.695-.135-7.388-.298a527.89 527.89 0 0 1-6.201-.298c-3.392-.188-6.786-.347-10.173-.606-2.84-.217-5.674-.532-8.504-.857-2.29-.263-4.575-.589-6.855-.929a1.478 1.478 0 0 1-.992-.518 8.583 8.583 0 0 1-1.482-3.804c-.627-13.895 1.441-149.516 1.835-151.397a3.536 3.536 0 0 1 2.942-2.288c1.485-.01 18.773-.507 21.534-.585 4.195-.118 8.391-.198 12.586-.315 2.81-.079 5.62-.197 8.43-.291 3.107-.104 6.232-.028 9.317-.346 3.312-.34 6.63.023 9.915-.292 3.806-.364 7.619.027 11.4-.297 4.943-.422 9.894.057 14.816-.303 4.697-.344 9.386-.102 14.076-.255 1.969-.064 3.935-.233 5.904-.277a3.094 3.094 0 0 1 3.122 3.057c.116 4.492 1.202 132.797.822 140.742-.213 4.45 0 8.896-.279 13.33-.105 1.672.039 3.45-.953 5.014a5.853 5.853 0 0 1-4.961 2.992c-1.682.055-3.366.011-5.05.011ZM107.95 35.856a2.793 2.793 0 0 0-2.89-2.876c-4.77-.108-9.538-.226-14.307-.283q-5.825-.07-11.652.001c-3.094.038-6.188.157-9.282.233v-.056c-1.263.006-2.527.008-3.79.023-4.769.056-9.538.174-14.306.282a2.793 2.793 0 0 0-2.89 2.877c-.384 4.705.213 44.566.22 55.215a8.029 8.029 0 0 0 .235 1.756 2.152 2.152 0 0 0 2.144 1.83c1.382.09 2.763.228 4.147.28 3.372.126 6.747.207 10.12.319 2.13.07 4.258.163 6.386.245-.466-.907-.92-1.821-1.401-2.72a22.482 22.482 0 0 1-2.37-5.072 6.087 6.087 0 0 0-.812-2.58c-.234-.293-.038-.929-.038-1.52l-.635-.232c-1.644-9.54 1.37-17.54 8.23-24.102 4.552-4.354 12.113-7.396 15.974-7.196-.003.729-.544.644-1.014.737-1.088.217-2.166.48-3.243.75a.761.761 0 0 0-.552.536c4.326-.602 8.46-2.026 12.772-1.224l.258-.871a2.96 2.96 0 0 1 .301-.086c1.185-.202 2.236.348 3.34.6.14.032.359.093.384.183.331 1.205 1.449 1.005 2.284 1.297.886.31 1.78.594 2.671.89-.123-6.411.239-12.828-.285-19.236ZM107.42 150.653c0 6.126.013 10.934-.012 15.741a17.281 17.281 0 0 1-.273 2.571c-.077.49-.301.938.13 1.404a1.026 1.026 0 0 1 .104.778 3.344 3.344 0 0 1-2.683 2.169c-5.392.091-10.793.02-16.173.33-3.613.208-7.23-.047-10.818.266-3.386.294-6.774-.036-10.133.27-3.43.312-6.865-.032-10.27.274-4.024.36-8.043.067-12.058.24-13.815.592-27.636.11-41.453.265a4.319 4.319 0 0 1-1.093-.022c-.315-.08-.75-.265-.848-.515a8.132 8.132 0 0 1-.705-2.482c-.165-3.327-.074-6.673-.346-9.99-.405-4.936.03-9.881-.28-14.803-.426-6.769-.092-13.535-.235-20.3q-.143-6.783-.266-13.567a8.6 8.6 0 0 1 .011-.961 1.093 1.093 0 0 1 1.044-1.081c1.13-.119 2.264-.238 3.399-.285 2.827-.119 5.674-.033 8.48-.337 2.929-.317 5.845-.142 8.765-.22 4.43-.12 8.874-.018 13.29-.328 5.26-.37 10.524.06 15.766-.27 5.763-.362 11.532.066 17.276-.288 4.85-.3 9.69-.096 14.533-.216 4.614-.114 9.229-.175 13.842-.286 2.509-.06 5.016-.202 7.524-.256 1.483-.031 2.083.502 2.454 2a4.71 4.71 0 0 1 .194.93c.105 2.828.214 5.656.28 8.484.112 4.75.004 9.515.337 14.25.412 5.856.015 11.705.217 16.235Z"/><path class="_519645599__cls-2" d="M302.62 23.063c-.535.153-.994.383-1.53.536a25.152 25.152 0 0 0-8.653 3.829 11.064 11.064 0 0 0-4.135 5.206 11.784 11.784 0 0 0-.919 3.676c-.077 1.072-.23 2.144-.383 3.216a5.042 5.042 0 0 1-1.761 3.37 2.708 2.708 0 0 1-1.455-1.456 14.72 14.72 0 0 1-1.455-4.135 39.123 39.123 0 0 0-1.914-6.661 8.245 8.245 0 0 0-4.977-4.748 14.367 14.367 0 0 0-5.36-.919 12.332 12.332 0 0 0-1.685 0 2.037 2.037 0 0 1-2.297-1.378 11.263 11.263 0 0 1-.46-1.072c.077-.613.537-.69.92-.919 3.062-1.225 6.125-2.45 9.035-3.905a11.805 11.805 0 0 0 4.441-3.523 12.927 12.927 0 0 0 1.914-3.675 53.457 53.457 0 0 0 1.762-5.973 23.695 23.695 0 0 0 .153-3.292 1.177 1.177 0 0 1 1.072-1.226.816.816 0 0 1 .995.613 7.003 7.003 0 0 1 .077 1.302 7.41 7.41 0 0 0 .306 2.91 2.119 2.119 0 0 1 .077.689 21.678 21.678 0 0 0 1.072 5.896 10.325 10.325 0 0 0 2.374 3.905 11.032 11.032 0 0 0 6.125 2.987c2.068.459 4.135.919 6.203 1.455 1.072.306 1.225.689.995 1.76a12.107 12.107 0 0 0-.536 1.532ZM268.551 43.735c-.268.077-.498.192-.766.268a12.583 12.583 0 0 0-4.33 1.916 5.536 5.536 0 0 0-2.068 2.605 5.896 5.896 0 0 0-.46 1.84c-.039.536-.115 1.072-.192 1.608a2.523 2.523 0 0 1-.881 1.686 1.355 1.355 0 0 1-.728-.728 7.364 7.364 0 0 1-.728-2.069 19.573 19.573 0 0 0-.958-3.333 4.125 4.125 0 0 0-2.49-2.375 7.19 7.19 0 0 0-2.682-.46 6.166 6.166 0 0 0-.842 0 1.02 1.02 0 0 1-1.15-.69 5.65 5.65 0 0 1-.23-.537c.039-.306.268-.345.46-.46 1.533-.613 3.065-1.226 4.521-1.954a5.906 5.906 0 0 0 2.222-1.762 6.466 6.466 0 0 0 .958-1.84 26.753 26.753 0 0 0 .881-2.987 11.864 11.864 0 0 0 .077-1.648.589.589 0 0 1 .536-.613.408.408 0 0 1 .498.307 3.508 3.508 0 0 1 .039.651 3.708 3.708 0 0 0 .153 1.456 1.061 1.061 0 0 1 .038.345 10.848 10.848 0 0 0 .537 2.95 5.167 5.167 0 0 0 1.187 1.953 5.52 5.52 0 0 0 3.065 1.495c1.035.23 2.07.46 3.104.728.536.153.613.344.498.88a6.065 6.065 0 0 0-.269.768ZM298.586 108.473c-1.727 2.468-7.464 11.227-7.473 11.211-.397.429-10.273 15.302-10.273 15.302-.017.007-.028.017-.046.022-.005.002 0 .03 0 .045l-.866 1.282-.092-.053c-.9 1.296-1.803 2.544-2.641 3.834a5.447 5.447 0 0 0-.462.952l-.847 1.254a3.07 3.07 0 0 0-.395.418c-.53.72-.988 1.49-1.477 2.24.015.025.02.044.032.067l-2.346 3.476a1.937 1.937 0 0 0-.645.715c-.246.484-.565.931-.845 1.399a2.138 2.138 0 0 0-.132.289l-1.061 1.57a1.168 1.168 0 0 0-.413.574c-.008.023-.014.047-.021.07l-1.983 2.936a4.321 4.321 0 0 0-.434.547c-.182.286-.35.58-.523.871l-1.534 2.272a.921.921 0 0 0-.316.468l-7.951 11.776a1.174 1.174 0 0 0-.108.159l-1.288 1.908c-.013.018-.033.032-.045.05l-.462.69c1.935.088 3.87.164 5.805.14 5.987-.072 11.976.246 17.965-.204 2.777-.208 5.583-.035 8.376-.035l.004.119c3.468-.132 6.935-.278 10.403-.393 3.331-.11 6.663-.193 9.994-.281a4.303 4.303 0 0 0 3.531-2.6 16.023 16.023 0 0 0 .634-3.342c.164-3.145.303-6.296.288-9.444-.1-20.318.333-40.638-.255-60.954-.066-2.288-.041-4.574-.06-6.862q-3.706 5.456-7.423 10.904c-1.517 2.218-3.075 4.407-4.615 6.608ZM259.817 77.01a1.76 1.76 0 0 0 .613-.186c1.463-1.191 2.908-2.403 4.356-3.607l-.475-.363a19.34 19.34 0 0 1 6.393-2.934 21.23 21.23 0 0 1 10.44.61c2.42.71 4.362 2.203 6.502 3.37a4.855 4.855 0 0 1 1.33 1.42 44.11 44.11 0 0 1 3.096 4.295 15.459 15.459 0 0 1 1.875 5.836c.084.659-.266 1.365-.232 2.04.03.605.377 1.19-.295 1.677-.11.08-.09.426-.037.625a5.28 5.28 0 0 1-.511 3.99 19.79 19.79 0 0 0-1.129 3.206 17.551 17.551 0 0 1-14.704 12.271c-5.265.714-9.801-.88-13.9-3.908a20.377 20.377 0 0 1-5.005-5.786 30.48 30.48 0 0 1-2.163-5.056 16.03 16.03 0 0 1-1.06-6.865 17.944 17.944 0 0 1 2.306-8.42 4.352 4.352 0 0 1 2.604-2.22ZM144.225 42.906a2.063 2.063 0 0 0 .718-.219c1.714-1.395 3.407-2.815 5.104-4.226l-.556-.425a22.66 22.66 0 0 1 7.49-3.438 24.876 24.876 0 0 1 12.233.714c2.835.833 5.11 2.582 7.619 3.95a5.69 5.69 0 0 1 1.558 1.664 51.685 51.685 0 0 1 3.627 5.032 18.113 18.113 0 0 1 2.197 6.838c.099.772-.312 1.6-.272 2.39.036.709.442 1.393-.346 1.965-.128.093-.105.5-.043.732a6.187 6.187 0 0 1-.599 4.675 23.19 23.19 0 0 0-1.322 3.757 20.564 20.564 0 0 1-17.23 14.378c-6.168.837-11.483-1.031-16.285-4.58a23.875 23.875 0 0 1-5.865-6.779 35.714 35.714 0 0 1-2.533-5.924 18.783 18.783 0 0 1-1.244-8.044 21.026 21.026 0 0 1 2.703-9.864 5.1 5.1 0 0 1 3.051-2.602ZM166.07 118.856c.613-.432 1.427-.77.824-1.768.528-.81 1.024-1.644 1.597-2.422a7.38 7.38 0 0 1 1.002-.973 13.405 13.405 0 0 1 .84-1.864c.906-1.395 1.883-2.744 2.855-4.145l.635.362c.144-.516.28-.987.404-1.462.023-.09-.029-.269-.004-.277 1.093-.36.799-1.52 1.288-2.242 2.902-4.284 5.72-8.625 8.592-12.93a12.077 12.077 0 0 1 1.278-1.398l-.002-.002.204.355.1-.355-.005.007.893-.895c.04-.65-.153-1.379.6-1.79l.212.333-.224-.321a10.59 10.59 0 0 1 .708-1.442c1.849-2.681 3.726-5.343 5.593-8.011 1.666-2.38 3.35-4.747 4.991-7.144q5.015-7.325 9.99-14.676c.325-.477.545-1.07 1.39-1.085.07.916.194 1.81.196 2.706.019 10.246-.214 20.5.089 30.737.32 10.834.305 21.668.126 32.492-.155 9.298-.08 18.594-.22 27.89a6.734 6.734 0 0 1-.13 1.172 3.326 3.326 0 0 0 .325 2.837 17.165 17.165 0 0 1-1.654 1.546 3.369 3.369 0 0 1-1.55.665c-3.328.32-6.661.607-9.997.83-2.075.138-4.16.117-6.238.22-2.642.13-5.28.345-7.924.466-3.057.14-6.116.216-9.175.322-2.594.09-5.189.15-7.78.28-3.1.155-6.193.447-9.293.535-2.264.065-4.535-.104-6.802-.17-.148-.005-.313-.08-.44-.037-1.372.48-2.73-.065-4.096-.049a2.738 2.738 0 0 1-2.396-4.2c.862-1.495 1.853-2.916 2.815-4.35a2.002 2.002 0 0 1 .749-.648c.365-.18.407-.379.449-.78a1.37 1.37 0 0 1 1.174-1.302 1.98 1.98 0 0 0 1.705-1.78c.098-.525.025-1.342 1.04-1.21.079.01.185-.782.402-1.123.704-1.103 1.464-2.17 2.205-3.248.139-.202.376-.38.417-.598a4.51 4.51 0 0 1 1.5-2.546 1.503 1.503 0 0 0 .516-1.154c-.21-.786.203-1.091.731-1.41l.243.407.25-.443-.506.051c.61-1.05 1.193-2.118 1.845-3.142a11.842 11.842 0 0 1 1.134-1.326l.39.108-.396-.1a6.354 6.354 0 0 0 1.027-1.079 8.047 8.047 0 0 0 .48-1.445c.341-.97 1.246-.895 2.128-1.15l-.541-1.152a2.61 2.61 0 0 1 .15-.33c.302-.505.648-.988.913-1.512.538-1.06 1.751-1.16 2.578-1.89l-.19-.957ZM39.641 70.398c-.462.132-.858.33-1.32.463a21.69 21.69 0 0 0-7.462 3.301 9.542 9.542 0 0 0-3.565 4.49 10.157 10.157 0 0 0-.793 3.17c-.066.924-.198 1.848-.33 2.773a4.348 4.348 0 0 1-1.518 2.905 2.335 2.335 0 0 1-1.255-1.255 12.692 12.692 0 0 1-1.255-3.565 33.736 33.736 0 0 0-1.65-5.745 7.11 7.11 0 0 0-4.292-4.094 12.39 12.39 0 0 0-4.622-.792 10.64 10.64 0 0 0-1.453 0 1.757 1.757 0 0 1-1.98-1.188 9.709 9.709 0 0 1-.397-.925c.066-.528.462-.594.792-.792 2.642-1.057 5.283-2.113 7.792-3.368a10.18 10.18 0 0 0 3.83-3.037 11.148 11.148 0 0 0 1.65-3.169 46.11 46.11 0 0 0 1.519-5.15 20.448 20.448 0 0 0 .132-2.84 1.015 1.015 0 0 1 .925-1.056.703.703 0 0 1 .858.528 6.036 6.036 0 0 1 .066 1.123 6.388 6.388 0 0 0 .264 2.51 1.829 1.829 0 0 1 .066.593 18.696 18.696 0 0 0 .925 5.085 8.904 8.904 0 0 0 2.047 3.367 9.513 9.513 0 0 0 5.282 2.575c1.783.396 3.566.793 5.348 1.255.925.264 1.057.594.859 1.519a10.442 10.442 0 0 0-.463 1.32ZM72.085 95.702c-.466-.907-.92-1.821-1.402-2.72a22.482 22.482 0 0 1-2.37-5.072 6.085 6.085 0 0 0-.811-2.58c-.234-.293-.038-.928-.038-1.52l-.635-.232c-1.644-9.54 1.37-17.54 8.23-24.102 4.552-4.354 12.113-7.396 15.974-7.196-.004.729-.544.644-1.014.737-1.088.217-2.166.48-3.243.75a.762.762 0 0 0-.552.536c4.326-.602 8.46-2.026 12.772-1.224l.258-.871a3.013 3.013 0 0 1 .301-.086c1.185-.202 2.236.348 3.34.6.14.032.359.093.384.183.331 1.205 1.449 1.005 2.284 1.297.886.31 1.78.594 2.671.89a5.925 5.925 0 0 1 .276 1.256c.007 7.417.024 14.833-.029 22.25-.037 5.268-.17 10.535-.272 15.802-.037 1.89-.753 2.578-2.665 2.527q-4.69-.125-9.377-.307c-2.03-.076-4.068-.108-6.09-.294-5.412-.499-10.834-.183-16.25-.31a11.137 11.137 0 0 1-1.742-.314ZM15.66 124.137a1.47 1.47 0 0 0 .513-.156c1.223-.996 2.432-2.01 3.643-3.017l-.397-.303a16.175 16.175 0 0 1 5.347-2.455 17.758 17.758 0 0 1 8.732.51c2.025.595 3.649 1.844 5.439 2.82a4.06 4.06 0 0 1 1.113 1.188 36.917 36.917 0 0 1 2.589 3.592 12.93 12.93 0 0 1 1.568 4.881c.07.551-.223 1.142-.194 1.707.026.505.316.994-.247 1.402-.091.066-.075.356-.031.523a4.417 4.417 0 0 1-.427 3.337 16.56 16.56 0 0 0-.944 2.682 14.68 14.68 0 0 1-12.3 10.264 15.447 15.447 0 0 1-11.624-3.27 17.043 17.043 0 0 1-4.187-4.838 25.49 25.49 0 0 1-1.808-4.23 13.408 13.408 0 0 1-.888-5.742 15.009 15.009 0 0 1 1.93-7.041 3.64 3.64 0 0 1 2.178-1.858ZM96.4 163.309c-.048-.405-.205-.803-.217-1.206-.109-3.728-.214-7.457-.284-11.186-.042-2.242 0-4.486-.028-6.729-.043-3.38-.116-6.76-.173-10.14-.037-2.226-.057-4.453-.114-6.678a8.624 8.624 0 0 0-.24-1.334l-.004-.244-1.387-.008.012-.009-.826.552a3 3 0 0 0-2.205.825c-.39.009-.799-.007-.814.55l.807-.041.01-.505-.01.506.009.308c-1.575.761-3.159 1.503-4.721 2.289-1.629.818-3.221 1.708-4.855 2.515q-7.352 3.63-14.727 7.214a583.199 583.199 0 0 1-9.415 4.444 6.56 6.56 0 0 1-1.445.308l4.574-2.413q.89-.467 1.79-.909c2.45-1.2 4.906-2.39 7.355-3.593 1.71-.84 3.41-1.706 5.123-2.54 3.264-1.59 6.538-3.157 9.801-4.749 1.901-.926 3.788-1.882 5.68-2.824-1.478-.037-2.668.832-3.912 1.396-4.264 1.932-8.45 4.035-12.67 6.065q-6.094 2.93-12.198 5.843c-3.474 1.656-6.967 3.274-10.43 4.95-2.819 1.364-5.608 2.787-8.409 4.186-1.913.956-3.823 1.919-5.739 2.868-.53.263-1.091.466-1.615.74-2.494 1.305-4.963 2.659-7.476 3.927-1.454.734-2.988 1.308-4.46 2.01-1.713.816-3.397 1.693-5.172 2.583a4.26 4.26 0 0 0 .462 1.139 3.283 3.283 0 0 0 .977.509c-.762.434-1.575.739-1.217 1.784a1.073 1.073 0 0 0 .342.158c2.358.193 4.714.457 7.077.534 1.68.055 3.366-.166 5.051-.224 3.149-.11 6.298-.187 9.447-.284 2.829-.086 5.658-.187 8.487-.269 3.469-.1 6.939-.185 10.409-.28 3.24-.088 6.481-.188 9.723-.27 3.927-.1 7.855-.203 11.783-.273 2.243-.04 4.487.01 6.73-.033 2.692-.053 5.384-.156 8.075-.253.86-.031 1.138-.367 1.039-1.21Zm-43.319-17.162.04-.11c.033.003.082-.007.096.011a.288.288 0 0 1 .029.112Zm.984-.102c-.017-.03-.056-.068-.048-.087.012-.027.056-.04.087-.06l.099.045Zm.605-.524-.052-.18.606-.051.013-.013-.012.013Zm36.433-17.55Zm.321-.031a.676.676 0 0 0 .28-.132.676.676 0 0 1-.28.132Z"/></svg>